<svg id="Layer_1" data-name="Layer 1" xmlns="http://www.w3.org/2000/svg" viewBox="0 0 706.77 229.25"><defs><style>.cls-1{fill:#fbfbfb;}.cls-2{fill:#ed2326;}.cls-3{fill:#fefefe;}</style></defs><title>H_Logo</title><path class="cls-1" d="M1012.24,389.12q0,54.4,0,108.82c0,.8-.18,1-1,1q-352.39,0-704.79,0c-.81,0-1-.18-1-1q0-113.64,0-227.29c0-.8.18-1,1-1q352.4,0,704.79,0c.81,0,1,.18,1,1q0,54.19,0,108.39c-.59-.06-.47-.55-.49-.9a80.23,80.23,0,0,0-3-16.63A59.75,59.75,0,0,0,1001.7,346a53.09,53.09,0,0,0-22.45-19.63A63.22,63.22,0,0,0,960.78,321a80.21,80.21,0,0,0-15.49-.49,69.51,69.51,0,0,0-15.49,2.67,56,56,0,0,0-20.49,10.87,54.12,54.12,0,0,0-13.77,17.73,65.89,65.89,0,0,0-5.9,19.18,82.54,82.54,0,0,0-1,13.76c.16,9.72,1.63,19.2,5.45,28.23a56.86,56.86,0,0,0,10.53,16.42,53.07,53.07,0,0,0,14.86,11.27,60.7,60.7,0,0,0,16,5.49A74.12,74.12,0,0,0,954,447.54c12.68-.61,24.51-3.94,34.83-11.65a54,54,0,0,0,17-21.42,67.42,67.42,0,0,0,5.39-19.34c.21-1.66.42-3.33.53-5C1011.77,389.74,1011.63,389.23,1012.24,389.12Z" transform="translate(-305.49 -269.67)"/><path class="cls-2" d="M1012.24,389.12a22.74,22.74,0,0,0-.58,4.72c-1.31,11.29-4.81,21.77-11.56,31A53.46,53.46,0,0,1,976,443.31a67.32,67.32,0,0,1-22.65,4.52,78.29,78.29,0,0,1-16.81-1.18,58.3,58.3,0,0,1-26.81-12,54.39,54.39,0,0,1-15.11-19.79,71.48,71.48,0,0,1-6.15-27.7,79.29,79.29,0,0,1,3.15-26,57.49,57.49,0,0,1,12.93-22.89,53.74,53.74,0,0,1,17.65-12.54,66,66,0,0,1,22.44-5.39,75.4,75.4,0,0,1,21.92,1.48c11.24,2.51,21.1,7.57,29.07,16a59,59,0,0,1,14.47,27.5,85.51,85.51,0,0,1,1.95,13.22c0,.2,0,.44.2.56Z" transform="translate(-305.49 -269.67)"/><path class="cls-2" d="M750.62,394.19q-21,0-42,0c-1,0-1.25.15-1.16,1.23a33.82,33.82,0,0,0,4.1,14.26,23.11,23.11,0,0,0,13.12,10.7,33.78,33.78,0,0,0,18.77.84,19.12,19.12,0,0,0,14.11-12.32,1.67,1.67,0,0,1,1.83-1.29c11.18.05,22.37,0,33.55,0,.86,0,1.09.13.79,1a62.1,62.1,0,0,1-7.77,16.11,48.68,48.68,0,0,1-8,9,54.17,54.17,0,0,1-22.25,11.62A80.2,80.2,0,0,1,734,447.87a72.65,72.65,0,0,1-19-2.62,55.28,55.28,0,0,1-25.26-14.8,56.26,56.26,0,0,1-13.05-21.85,81.27,81.27,0,0,1-3-37.1,62.11,62.11,0,0,1,9.74-26.24,53.64,53.64,0,0,1,22-19.05,63.2,63.2,0,0,1,20.39-5.65,73.41,73.41,0,0,1,19.42.38c11.84,1.82,22.3,6.52,30.91,15a56.67,56.67,0,0,1,13.4,21.38,82.17,82.17,0,0,1,4.55,22.57,135.7,135.7,0,0,1-.06,13.68c0,.45-.16.66-.62.63-.29,0-.58,0-.86,0Z" transform="translate(-305.49 -269.67)"/><path class="cls-2" d="M659.22,384.17q0,29.85,0,59.71c0,.95-.19,1.27-1.22,1.26q-15.42-.06-30.83,0c-1,0-1.27-.24-1.27-1.25,0-15.44,0-30.87.05-46.31,0-1.05-.28-1.28-1.3-1.28q-25,0-50.06,0c-1,0-1.26.2-1.26,1.22,0,15.58,0,31.16,0,46.74,0,.77-.25.87-.9.87q-15.69,0-31.37,0c-1,0-1-.5-1-1.25q0-24.22,0-48.46,0-35.43,0-70.86c0-1.12.31-1.34,1.37-1.34q15.42.06,30.85,0c.93,0,1.09.28,1.09,1.14q0,21.22,0,42.45c0,1,.23,1.32,1.28,1.32q25.1,0,50.17,0c1,0,1.16-.25,1.16-1.17q0-21.12,0-42.24c0-1.48,0-1.47,1.52-1.47,10.18,0,20.35,0,30.53,0,1,0,1.25.2,1.25,1.22Q659.2,354.31,659.22,384.17Z" transform="translate(-305.49 -269.67)"/><path class="cls-2" d="M305.74,303.26c2.8,2.05,5.41,3.94,8,5.87l26.3,19.45c5.7,4.22,11.4,8.45,17.14,12.62a2,2,0,0,1,.78,1.94V496.32c0,.43,0,.86,0,1.29,0,.24.1.54-.16.69s-.44-.15-.63-.28l-7.53-5.45-31.23-22.68c-4.1-3-8.18-6-12.3-8.92a.78.78,0,0,1-.38-.78c0-.28,0-.57,0-.85V303.26Z" transform="translate(-305.49 -269.67)"/><path class="cls-2" d="M808.84,408c0-9.25,0-18.51,0-27.76a81.67,81.67,0,0,1,2.83-22.43c3.29-11.54,9.48-21.06,19.6-27.76a53,53,0,0,1,18.05-7.46,79.74,79.74,0,0,1,20.08-1.85,63.6,63.6,0,0,1,13.45,1.78c.71.18,1,.45,1,1.22q0,12.86,0,25.72c0,.85-.32,1-1,.81a41.52,41.52,0,0,0-16.91,0,30.81,30.81,0,0,0-12.3,5.44c-6,4.43-8.65,10.67-9.87,17.73a103.93,103.93,0,0,0-1.2,17.71q0,26.31,0,52.63c0,1-.24,1.3-1.28,1.3q-15.64-.06-31.3,0c-1,0-1.18-.27-1.18-1.21Q808.87,425.95,808.84,408Z" transform="translate(-305.49 -269.67)"/><path d="M396.85,379.41V269.88c1.16.85,2.23,1.63,3.29,2.42l27.53,20.39q10.31,7.63,20.63,15.23a1.29,1.29,0,0,1,.6,1.22q0,16.62,0,33.24a1.56,1.56,0,0,1-.77,1.48l-31.05,21.48Z" transform="translate(-305.49 -269.67)"/><path d="M448.83,389.85V465L443,460.8q-6.51-4.71-13-9.44-9.68-7-19.36-14.09l-12.92-9.35c-1-.69-1-.67,0-1.37l17-12.24q9.06-6.51,18.15-13,7.61-5.46,15.19-10.94C448.27,390.21,448.48,390.08,448.83,389.85Z" transform="translate(-305.49 -269.67)"/><path class="cls-3" d="M922.37,384.86c0-7.29.63-13.67,2.67-19.82,2.46-7.41,6.5-13.74,13.94-17,8.71-3.78,17.39-3.43,25.62,1.5a24,24,0,0,1,8.92,10.29,46.68,46.68,0,0,1,4.41,16.65,73.6,73.6,0,0,1-.69,19.83c-1,5.94-2.91,11.55-6.55,16.44a23.47,23.47,0,0,1-17.62,9.63A27,27,0,0,1,939,420.09a23.73,23.73,0,0,1-9.83-8.63c-4.3-6.49-6-13.8-6.59-21.44C922.42,388,922.37,386,922.37,384.86Z" transform="translate(-305.49 -269.67)"/><path class="cls-3" d="M733.29,369.9H709c-1.71,0-1.75,0-1.42-1.67a34.35,34.35,0,0,1,5.08-13,22,22,0,0,1,13.09-9.34c6.69-1.69,13.3-1.53,19.65,1.39,7,3.23,11.2,8.81,13.09,16.21a39.32,39.32,0,0,1,.82,5.18c.11.93-.11,1.21-1.1,1.2-4.39-.06-8.79,0-13.19,0Z" transform="translate(-305.49 -269.67)"/></svg>