<svg id="Layer_1" data-name="Layer 1" xmlns="http://www.w3.org/2000/svg" viewBox="0 0 773.52 192.78"><defs><style>.cls-1{fill:#fefefe;}.cls-2{fill:#020202;}.cls-3{fill:#030303;}.cls-4{fill:#fdfdfd;}.cls-5{fill:#110d0e;}.cls-6{fill:#231a10;}.cls-7{fill:#0c0c0c;}.cls-8{fill:#100f0f;}.cls-9{fill:#272727;}.cls-10{fill:#4c1515;}.cls-11{fill:#240c0d;}.cls-12{fill:#202020;}.cls-13{fill:#2d2c2f;}.cls-14{fill:#575757;}.cls-15{fill:#272525;}.cls-16{fill:#444;}.cls-17{fill:#270c0b;}.cls-18{fill:#fbfbfb;}.cls-19{fill:#fcfcfc;}.cls-20{fill:#f8f8f8;}.cls-21{fill:#fafafa;}.cls-22{fill:#f1f1f1;}.cls-23{fill:#3a3a3a;}.cls-24{fill:#2d2d2d;}.cls-25{fill:#323232;}.cls-26{fill:#676767;}.cls-27{fill:#f4f4f4;}.cls-28{fill:#555;}.cls-29{fill:#2a2a2a;}.cls-30{fill:#ababab;}.cls-31{fill:#5f5a55;}.cls-32{fill:#c4a537;}.cls-33{fill:#212222;}.cls-34{fill:#f42c2b;}.cls-35{fill:#750c0d;}.cls-36{fill:#991517;}.cls-37{fill:#bc2022;}</style></defs><title>PM_Logo</title><path class="cls-1" d="M501.89,417.85c-7.67-2-15.54-2.14-23.39-2.42-2.47-.08-4.92-.5-7.31-.66-4.53-.31-8.86,1.7-13,3.47a2.25,2.25,0,0,0-.53,3.8c1.12,1,2.14,3.08,4.46,1.53s3.19-.77,3.33,1.83a100.91,100.91,0,0,1-.6,18.14,15.29,15.29,0,0,0,.53,6.52,13,13,0,0,1,.79,4.7c-.06,1.09-1.11,3.05,1.09,2.94,1.57-.07,3.72-.27,4-2.68a16.4,16.4,0,0,0,.15-5.64c-1.07-5.34.46-10.62.58-15.94.06-2.94-.11-5.87.22-8.82.2-1.78.6-2.89,2.53-2.93,7.56-.15,15.13-.83,22.56,1.34,2.48.73,5.07,1.08,7.15,2.76,1.32,1.07,2.39,1.9-.23,3.06-5.95,2.62-12.15,3.57-18.55,4-2.87.2-5.63.83-8.5-.32-1.53-.61-4.11,2.1-4.21,4.15s1.09,2.52,2.89,2.46,2.57,1.28,3.48,2.46c-1.93.67-3.72-.05-5.53-.52-1.34-.34-2.1-.11-1.9,1.51.3,2.36-.87,5,1.62,6.92.27.21.07,1,.2,1.44.74,2.55-2.12,4.23-1.7,6.82,0,.32-1.88,2.8-3.79,1.2-.67-.57-1.26-.33-1.94-.13-1.27.38-1.72-.2-1.34-1.39a5.23,5.23,0,0,0-1.14-5.77,2.56,2.56,0,0,1-.29-3.26,6.37,6.37,0,0,0-.1-6.23,5.84,5.84,0,0,1-.21-4.63c.78-2.74-.1-5.47,0-8.22.09-1.69-1.09-2.53-2.84-3.11-2.82-.92-5.31-2.23-5.1-6.16.18-3.58,3.09-5.92,6.43-4.6,1.72.67,3.29,1,4.35-1.43,1.18-2.75,4.22-3,6.4-.78.86.88,1.38,1.62,2.59.53a1.53,1.53,0,0,1,1.95,0c2,1.42,3.66.49,5.73-.05,3.18-.83,6.77-1,9.77.94,1.68,1.12,2.91,1.5,4.83.42C500,413.68,501.09,415.75,501.89,417.85Z" transform="translate(-276.21 -266.75)"/><path class="cls-1" d="M1049.67,333.41c0,4.5-.07,9,0,13.5,0,1.29-.25,1.77-1.55,1.51a6.74,6.74,0,0,0-1.19,0q-384,0-768,.06c-2.25,0-2.77-.51-2.76-2.76q.14-38.4,0-76.8c0-1.79.36-2.15,2.15-2.15q63.75.09,127.5.05c-.33,1.69-1.75,1.35-2.83,1.38-2.39.07-4.79.17-7.18.18-.67,0-1.56-.05-1.67.87s.62,1.39,1.42,1.68a5,5,0,0,0,2.37,0,55.61,55.61,0,0,1,6.58-.16c2.31,0,4.09.8,4.94,3.11a15.69,15.69,0,0,1,.95,2.83c.37,1.79-.34,2.78-2.2,2.52-5.49-.77-10.68.38-15.74,2.39a29.07,29.07,0,0,0-9,4.3c-2.41,1.74-4.5,2.24-6.76,0a28,28,0,0,0-9.89-2.13c-3.61-.24-7.17-.6-10.13-3a3.05,3.05,0,0,0-2.79-.77c-3.66,1-7.5,1.16-11.14,2.25-3.34,1-4,2.19-2.84,5.55.6,1.8,1.08,3.64,1.68,5.44a20.85,20.85,0,0,1,.56,2.2,3.15,3.15,0,0,1,0,.92,4.28,4.28,0,0,1-1.6,2.14,27.25,27.25,0,0,0-12.14,22.89c.8-9.65,4.87-17.47,12.93-23.06,1.59-.91,3.32-1.57,4.86-2.58a5.6,5.6,0,0,1,1.57-.72c1.71-.33,3.42-.66,5.12-1.08a5.71,5.71,0,0,1,.91-.21,27.81,27.81,0,0,1,9.78,1c1.39.33,3.33.56,2.92,2.65s-2.19,1.95-3.85,1.55a25.19,25.19,0,0,0-12.44-.1,23.08,23.08,0,0,0-15.1,11.81c-8.06,15.3,1.2,32.94,18.33,35.29,11.79,1.62,22-6.44,25.35-17.33.69-2.24,1.3-4.4,3.33-5.81a10,10,0,0,1,10.53-4,15.85,15.85,0,0,0,3.58.05,4.82,4.82,0,0,1,5,3c.35-7.22,2.4-12.94,6.36-17.93,1.39-1.35,2.77-2.7,4.1-4.11,1.66-1.41,3.18-3.29,5.75-1.86.88,2.4-1.23,3.16-2.49,4.2a25.46,25.46,0,0,0-9,14.13c-3,12.5,5.63,24.72,16,28.33,14.23,4.94,30.72-5.82,30.9-21.93.19-15.89-11.87-25.94-27.27-24.95A11.52,11.52,0,0,1,423,298c-1.74-.28-2.64-1-1.28-2.79,5-1.78,10-.95,15.08-.32,5.4,1.73,9.78,5.08,13.87,8.89-2.61-4.11-6.64-6.35-10.88-8.31a8.56,8.56,0,0,0-4.2-.86,10.26,10.26,0,0,1-3.64-.64c-2.23-1-4.51-.62-6.79-.21a6.52,6.52,0,0,1-1,.19c-1.48,0-3,.28-4.39-.37-1.68-1.59-2.18-3.78-2.77-5.85-.65-2.26.24-3,2.48-2.2a21.26,21.26,0,0,0,9.08,1.45c2.79-.2,3.71-1.11,3.34-3.76a52.6,52.6,0,0,0-1.31-8.26c-.62-2.09-1.83-2.74-3.82-2a24.83,24.83,0,0,0-8.62,4.66c-3.14,2.88-3.14,2.88-5-1-1.41-3.13-2.05-6.51-3.12-9.76q318.45,0,636.9-.06c2.25,0,2.77.51,2.76,2.76-.11,20.3-.06,40.6-.06,60.9a1,1,0,0,1-1.05-.39c-4.6-6.37-11.46-8.4-18.68-9.5-7-1.06-13.53-3.32-20.08-5.67-1.43-.52-3-1.23-3-3s1.51-2.7,3-3.29c9.76-3.78,19.67-5.15,29.85-1.73,1.57.52,3.08.56,3.8-1.2a2.64,2.64,0,0,0-1.75-3.63c-4.19-1.59-8.44-2.93-13.07-2.24-3.06.46-6.11,1-9.19,1.34-4.14.41-7.89,2.13-11.79,3.32-3.13.95-6,3.21-6.09,6.72-.11,3.72,2.63,6.37,5.85,7.68a87.69,87.69,0,0,0,19,5.4,50.14,50.14,0,0,1,13.5,3.81c1.44.68,3.15,1.42,3.12,3.27s-1.75,2.49-3.25,3.11c-3.63,1.49-7.5,2-11.28,2.9-10.34,2.48-20.45.34-30.63-.78-3.42-.37-4-1.69-2.22-4.74.94-1.65.37-2.68-1.5-2.72a4.5,4.5,0,0,0-4.75,4.09c-.28,2.84-1.8,4-4.34,4.48-7.85,1.58-15-.14-21.68-4.37a45.83,45.83,0,0,1-7.75-6.53c-.72-.71-1.5-1.44-1-2.59a2.15,2.15,0,0,1,2.27-1.14c5.93-.06,11.16-2.82,16.7-4.32a7,7,0,0,0,1.41-.53c2.21-1.16,4.18-2.71,4.36-5.33s-1.49-4.64-3.65-5.79c-3.43-1.83-7.05-3.55-11-3.87-6.87-.55-13.71-1.48-20.62-1.36-1.71,0-3.38-.39-5.06-.47-4-.18-7.48,1.82-11.28,2.48a2.12,2.12,0,0,0-1.42,3.12,2.68,2.68,0,0,0,3.19,1.6c4-.68,4.09-.42,4.55,3.48a67.17,67.17,0,0,1-.52,17.29,14.83,14.83,0,0,0,.67,6.8c.71,2.13.14,4.39.64,6.53,2.54,1.9,3.73,1.49,4.52-1.4a14,14,0,0,0-.06-7.78c-1.33-4.73.67-7.29,6.12-8.25,3.88,1.83,6.54,5.19,9.79,7.8,5.38,4.31,11.12,7.56,18.11,8.71a27.91,27.91,0,0,0,17.53-2.44,2.9,2.9,0,0,1,2.89-.06c4.86,3.06,10.43,2.28,15.73,2.91,2.36.28,4.77.1,7.16.51a9.79,9.79,0,0,0,5.6-.51,11.47,11.47,0,0,1,4.73-.54c8,0,15.48-1.61,21.3-7.74A1.26,1.26,0,0,1,1049.67,333.41Z" transform="translate(-276.21 -266.75)"/><path class="cls-2" d="M933.94,343.32a24.27,24.27,0,0,0-1-9.15c-.75-2.59-.36-5.39.08-8a66.26,66.26,0,0,0,.35-15.09c-.14-2.51-1.26-3.33-3.11-1.9-2.41,1.85-3.55-.28-4.65-1.42-1.31-1.36-.62-3,.76-4.17a5.44,5.44,0,0,1,3.61-1.21c1.82,0,3.52-.14,5-1.52a3.78,3.78,0,0,1,3.72-.59c5.55,1.83,11.28.7,16.91,1.22,6.67.62,13.24,1.43,19.44,4.12,2.79,1.22,5.66,5.16,5.4,7.41s-3.85,5.62-6.5,6.43a106.69,106.69,0,0,0-10.89,3.85c-2,.83-4.47.3-6.72.46-1.22.08-2.2.64-.94,1.81,4.37,4.1,8.56,8.65,14.58,10.25,5.27,1.4,10.66,2.42,16.18.89,1.5-.41,2.09-1,2.24-2.55.41-4.28,1.39-5.19,5.61-6a2.49,2.49,0,0,1,3.13,1.61c.45,1.23.3,2.39-1.23,2.88a1.38,1.38,0,0,0-1.07,1.83,1.93,1.93,0,0,0,1.85,1.31c9,.84,18,3,27,1.55,5.49-.87,11.27-1.07,16.39-3.76,1-.54,2.55-.77,2.65-2.14s-1.38-1.77-2.42-2.31c-5.65-2.92-11.91-3.52-18-4.9-4.92-1.13-9.75-2.69-14.56-4.24a10.55,10.55,0,0,1-4.21-2.78c-4.28-4.39-3.68-9.37,1.62-12.41,4-2.29,8.56-3,12.91-4.28a47.62,47.62,0,0,1,12.59-1.83c4.29-.05,9.18.54,13,3.53a3.11,3.11,0,0,1,.6,4.56,3.6,3.6,0,0,1-4.48,1.13c-5.87-2.08-11.84-3.12-18.2-1.69-3.38.76-6.63,2-10.09,2.52-1.79.26-4.21,1-4.32,3-.1,1.87,2.33,2.17,3.85,2.71a112.66,112.66,0,0,0,20.48,5.54c5.14.79,10.25,2.15,14.44,5.71a21.48,21.48,0,0,1,3.76,4.67v3c-5.09,6.35-12,8.77-19.8,8.72-4.22,0-8.09,1.86-12.29,1.4-6.71-.75-13.66-.1-20.12-2-3.79-1.15-6.58-1.56-10.31.43-2.88,1.54-6.95.23-10.22,1.88-4.79-2.8-10.64-2.16-15.49-5.43-5.74-3.85-10.53-8.74-16-12.82a.82.82,0,0,0-.28-.11c-1.53.09-3.42.84-4.23-1.06a5.59,5.59,0,0,1,1-5.35c1.06-1.55,2.61-1.81,4.49-1.55,8.06,1.11,15.83-.32,23.43-2.94.81-.28,2-.56,2.06-1.52.1-1.16-1.09-1.68-2-1.95-3.42-1-6.72-2.41-10.38-2.67-4.47-.32-8.93-.32-13.4-.45-3.46-.1-4.66.68-4.87,4.06-.38,6.14-.67,12.29-1.66,18.38-.42,2.6.85,5.11.62,7.7-.47,5.13-2.2,6.33-5.94,5.69C934.09,343.75,934,343.52,933.94,343.32Z" transform="translate(-276.21 -266.75)"/><path class="cls-3" d="M424.46,293.2a.33.33,0,0,1,.47-.07,20.31,20.31,0,0,1,7.21.12c1.13.89,2.53.12,3.72.58.35.39,1.45.24,1.11,1s-1.4.49-2.11.35a33.3,33.3,0,0,0-12.31,0,1.68,1.68,0,0,0-1.06.46c-.62,2.28.92,2,2.23,1.79,10.83-1.8,20.51,2.17,26,11.1,5.32,8.63,5.58,17.64.25,26.28s-13.66,12.89-23.84,11.5A25.14,25.14,0,0,1,415,301.2c1-.78,2.67-1.28,2.25-3.15a7.43,7.43,0,0,1-1.7-2.94,35.68,35.68,0,0,1-1.49-3.56c-.26-.76-1-1.38-.94-2.17.08-2.77-1.4-4.65-3.37-6.29a2.49,2.49,0,0,1-.76-1.26c-.11-.5-.21-1.1.11-1.44,2.16-2.25,1.1-4.29-.3-6.34-.73-2.13-2.23-2.75-4.4-2.51-2.57.28-5.16.32-7.74.48a3.77,3.77,0,0,1-3.14-1.42c-.61-.67-1.28-1.35-.76-2.37s1.36-.63,2.13-.64c3.09,0,6.18,0,9.28-.11.59,0,1.46.38,1.7-.67h4.2c1,.81,1.8,1.55,1.64,3.15-.23,2.31,2,4,2,6.36.62,1.61.75,3.43,2.74,4.3a2.32,2.32,0,0,1,1.21,2.83c-1.57,3,0,5.32,1,7.86a5.46,5.46,0,0,0,.94,2.15A9.17,9.17,0,0,0,424.46,293.2Z" transform="translate(-276.21 -266.75)"/><path class="cls-2" d="M382.52,323.34c-1.91,1.3-2.41,3.32-3.07,5.39-2.8,8.76-8.24,15.28-17.38,17.49-8.78,2.12-16.63-.21-23.32-6.59-8.95-8.55-8.75-22.12-4.35-29,4.05-6.55,9.6-11,17.31-12.52a24.75,24.75,0,0,1,11.22.61c2.8.75,3.38.4,3.66-2.45.1-1.14.5-1.66,1.5-1.82a3.28,3.28,0,0,1,3.64,1.46,1.66,1.66,0,0,1-.79,2.69c-.75.37-2,.16-2,1.36-.06.91.93,1.19,1.54,1.65,5.22,3.9,8.68,8.9,9.76,15.41.14.88-.27,2.26,1.13,2.22s2.13-1.12,1.92-2.62a2.73,2.73,0,0,1,.1-.81c1-1.5,3.44-1.07,4-3.07a3,3,0,0,1,1-.91c2-.78,3-.06,2.94,2.07-.27,1-1.16,1.64-1.64,2.53-.35,1.69-.74,2.89-3.05,3.07C384.75,319.61,383.52,321.64,382.52,323.34Z" transform="translate(-276.21 -266.75)"/><path class="cls-3" d="M503,303.55c2.28,1.59,5.36,1.49,7.4,3.62,1.67,1.74,3.79,3.55,3,6.09a9,9,0,0,1-6.07,6.12,96.47,96.47,0,0,0-11.21,3.88c-1.75.79-4.06.37-6.11.47-.79,0-1.77-.18-2.05.77s.71,1.06,1.17,1.54a54.92,54.92,0,0,0,8.43,7.17,15.72,15.72,0,0,0,5.66,2.63c6.12,1.33,12.27,2.74,18.38,0a2.13,2.13,0,0,1,.82-.3c.94-.19,1.66-1.63,2.85-.46a2.55,2.55,0,0,1,.56,3.18c-2.39,2.79-5.31,4.51-9.08,4.14-1.46-.14-2.68.58-4,.62a34.82,34.82,0,0,1-18.19-4.71c-5.28-2.95-9.17-7.57-14.08-10.93-1.25-.37-2.39-1-3.64-1.38-2.93-.9-3.57-1.84-3.1-4.44.43-2.42,2.51-4.38,4.86-3.9,3.33.69,6.57.17,9.83-.07a47.33,47.33,0,0,0,14.31-2.94c.88-.35,2.26-.46,2.2-1.68-.06-1-1.24-1.53-2.15-1.9a31.17,31.17,0,0,0-7.74-2.27,103.22,103.22,0,0,0-17.31-.68c-1.93.08-3,1.06-3.41,3.08-.76,3.65.14,7.33-.57,11-.55,2.88-1.43,5.8-1,8.85a21.64,21.64,0,0,0,.68,4.39c1.3,3.75-1,8.11-4.18,8.48-1.75.2-2.13-.39-2.55-2.19-2.22-9.58-.27-19.26-1-28.85-.17-2.19-.38-3.37-3.12-2.52-2.23.69-4.89-1.67-5.06-3.95A4.48,4.48,0,0,1,462,301.8c2.44.1,4.67.32,6.58-1.74.7-.76,2.15-.7,3.18-.39,5.71,1.71,11.57.69,17.35,1,3.65.21,7.12,1.87,10.9,1.08C501.19,301.54,502.17,302.68,503,303.55Z" transform="translate(-276.21 -266.75)"/><path class="cls-3" d="M734.41,332.12c.48-6.08-.68-11.36-.83-16.69,0-1.08,0-2.44-1.2-2.81s-1.77.82-2.32,1.59c-4.55,6.41-10.18,11.77-16.11,16.86a21.64,21.64,0,0,0-3,3.69c-2.13,2.88-3.92,3-5-.4-1.44-4.59-4.62-8.05-6.73-12.18-1.55-3.05-4.07-5.4-6.08-8.13-1-1.3-1.52-1-2.28.41-2,3.82-2.33,8.14-3.67,12.16-1.71,5.14-4.61,9.86-5.16,15.44-.13,1.34-1.87,3.22-3.85,2.47-1.68-.64-2.32-2.26-1.85-4.22,1.5-6.26,4.06-12.18,5.73-18.41,1.27-4.78,1.92-9.64,2.81-14.47a3.74,3.74,0,0,0-.57-2.29c-1.26-2.61.47-4.19,2.24-5.35a3.21,3.21,0,0,1,5.12,1.78c1.11,4.24,4.58,6.78,6.93,9.95a104.42,104.42,0,0,1,8.25,13c1.13,2.13,2,3.23,4.24.93,3.34-3.39,6.63-6.82,9.95-10.24,3.1-3.2,5.82-6.74,9-9.87a2.34,2.34,0,0,0,.46-2.47,4.35,4.35,0,0,1,2.19-4.75c2-1,3.52.34,4.57,2.17a21.18,21.18,0,0,1,2.74,12,13.22,13.22,0,0,0,.24,4.45c1.27,4.23.4,8.5.65,12.73.22,3.83.11,8,3.32,11.1,1,1,1.6,2.2.3,3.37s-2.33,1-3.77.09C736,341.06,735.73,336,734.41,332.12Z" transform="translate(-276.21 -266.75)"/><path class="cls-3" d="M648.33,346.94a15.74,15.74,0,0,1-11.94-8.88c-1.66-3.27-3.71-6.36-4.73-10-.45-1.59-1.67-1.81-3.33-1.57a88.42,88.42,0,0,1-14.71,1.24c-1.94,0-3.92.79-5.86-.2-.26-.14-1,.26-1.26.59-3.94,4.19-8,8.32-11.7,12.68a18.92,18.92,0,0,1-3.91,3.09c-1.37.93-3.11,1.05-4.25-.55-.71-1,.93-5.4,2.18-5.72,3.42-.86,4.86-4,7.12-6.11,1-.91,1.84-2,2.78-3a4.4,4.4,0,0,0,1.35-3.74,3.46,3.46,0,0,1,3.38-4.18,2.72,2.72,0,0,0,2.37-1c1.68-2.79,4.29-4.85,5.92-7.71,1.87-3.27,4.86-5.77,6.58-9.22.65-1.3,1.64-2.38,2-3.91a4.71,4.71,0,0,1,4.4-3.52,5.48,5.48,0,0,1,4.65,3.6q3,7.56,6,15.15a10.22,10.22,0,0,1,.58,1.69c1,4.8,1.84,5.48,6.83,4.36,2.13-.48,3.93.21,5.88.42a1.31,1.31,0,0,1,1.33,1.34c0,.84-.57,1.16-1.26,1.44a18,18,0,0,1-8,1.71c-2.19-.15-2.75,1.19-2,2.87,2.19,5.21,4.48,10.4,9.1,14.06a13.57,13.57,0,0,1,1.69,1.7c.51.56,1.33,1.1.59,2C649.53,346.27,648.9,346.92,648.33,346.94Z" transform="translate(-276.21 -266.75)"/><path class="cls-3" d="M752.13,330.45a46.27,46.27,0,0,1,9.73-24c4.39-5.68,10-7.1,16.77-6.61a121.4,121.4,0,0,1,13,1.48c4.82.87,7.9,3.66,10.71,7.12,1.07,1.31,1.85,2.84,2.84,4.22,4.38,6.05,1.21,16-4.33,18.7-2.45,1.19-4.53,3.25-6.78,4.83-2.69,1.9-6,2.94-9.16,4.12-5,1.91-10.4,2.41-15.65,2.85-5.78.48-11.46-.91-15.41-5.66C752.28,335.65,752.28,332.87,752.13,330.45Z" transform="translate(-276.21 -266.75)"/><path class="cls-3" d="M909.9,334.68c-2.62,3.74-7.19,3.82-10.82,5.63-4.65,2.33-10,2.34-15,2.76-4.58.39-9.09-.23-13.24-3.28-5-3.65-4.15-8.2-3.62-13.08,1-9.09,5.66-16.37,11.45-23,2.55-2.92,6.44-3.9,10.33-4A70.57,70.57,0,0,1,908.71,302c3.58,1,5.42,3.74,7.64,6.08a22.2,22.2,0,0,1,4,6.27c3.06,7,.67,13-6.8,17.94A17.08,17.08,0,0,0,909.9,334.68Z" transform="translate(-276.21 -266.75)"/><path class="cls-3" d="M538.38,321c-1.07,6.21.17,13.43-1.8,20.37-.45,1.57-.86,3.7-3.17,3.12s-2.71-2.33-2.21-4.5a23.12,23.12,0,0,0,.22-8.58c-.69-4.72.31-9.44.46-14.15s.06-9.17.21-13.76c.06-2-.1-3.7,2.47-4.36s3.75,1.11,4.39,2.64c3.76,9,11.32,14.28,18.71,19.77,4.18,3.1,9,5.09,13.59,7.34,2.28,1.11,3.11.14,3.19-1.71.32-7.07,1.46-14.1.82-21.21a12.64,12.64,0,0,1,.69-5,3.43,3.43,0,0,1,3.79-2.31c1.56.2,2.29,1,2.78,3,1.76,7.14-1.19,13.72-1.71,20.56-.39,5.11-1.2,10.19-1.69,15.3a11.07,11.07,0,0,0,.45,5c.69,1.86-.55,3-2.07,3.31s-2.69-.41-3-2.41c-.31-2.34-1.27-4.57-1.15-7,.07-1.49-1.15-1.65-2.19-2-5.45-1.86-10.92-3.64-15.56-7.26s-9.72-6.08-14-9.92c-.79-.71-1.53-2.11-2.63-1.59s-.57,2.15-.78,3.27A10.7,10.7,0,0,0,538.38,321Z" transform="translate(-276.21 -266.75)"/><path class="cls-3" d="M285.29,297.26a101.42,101.42,0,0,1,27.83,4.58c4.3,1.36,7.65,3.92,11.14,6.38s3,7-.48,9.9a28.38,28.38,0,0,1-8.52,4.82c-6.29,2.33-12.57,4.77-19.29,5.72-1.58.23-2.67,1-2.46,3.06.31,2.9-.2,5.9,2.07,8.4,1.28,1.42,0,2.73-1.16,3.47-1.44.94-3.13,2.14-4.79.32a9.5,9.5,0,0,1-2.77-6.74c0-1.91-1.11-3.6-.69-5.57.2-.94-.65-1.34-1.57-1.37a2.57,2.57,0,0,1-2.08-1c-.63-.86-2-1.61-1.71-2.66.35-1.33,1.9-.82,2.87-.78,2.19.1,3-.93,3.29-2.93.57-3.76.73-7.53.95-11.31.25-4.23,2.17-6.09,5.65-5.56,2.34.36,3,1.66,2.53,4-.68,3.63-1.21,7.26-2.11,10.85-.52,2.08.16,3.18,2.74,2.36,5.37-1.71,10.84-3.08,16.22-4.74,2.4-.74,4.2-2.6,6.14-4.11,1.34-1.05.49-2.3-.71-3.18a30.48,30.48,0,0,0-12.18-4.95c-6.22-1.26-12.29-3.36-18.82-2.32a19.43,19.43,0,0,0-5.18,1.34c-2.71,1.26-3.81.14-4.63-2.25s.3-3.84,2.15-4.87C281.42,297.18,283.38,297.27,285.29,297.26Z" transform="translate(-276.21 -266.75)"/><path class="cls-3" d="M859.1,305.12c-5.85.77-11.72.78-17.57,1.35-2.91.29-3.64,1.37-3.52,3.87.15,2.79,0,5.57-.09,8.36-.33,8-1.86,15.77-2.41,23.69-.16,2.43-1.42,3.24-3.6,2.26a2.16,2.16,0,0,1-1.3-1.54,14.35,14.35,0,0,1-.36-2.35,137.46,137.46,0,0,1,.71-23.39,76,76,0,0,0-.12-8.66c0-1.48-.64-2.35-2.21-1.85-4.84,1.51-9.65-1.33-14.53,0-1.5.42-3.88-2.37-3.72-4,.22-2.26,1.89-2.77,3.7-2.4,4.35.91,8.76.3,13.12.67,1.71.14,3.32.13,4.44-1.7s2.83-.72,3.69,0c1.85,1.56,4,1.44,5.95,1.32a221.23,221.23,0,0,1,25.1.31c1,.05,2.71-.68,2.78.76a3,3,0,0,1-2.88,3.25C863.89,305.21,861.49,305.12,859.1,305.12Z" transform="translate(-276.21 -266.75)"/><path class="cls-4" d="M933.94,343.32c4.45.28,6-1.58,5.68-6.64a46.66,46.66,0,0,0-.53-5.93c-.77-3.93,1.35-7.54,1-11.41a61.6,61.6,0,0,1,.14-9.11c.12-1.88.87-2.77,2.67-2.85,8.87-.42,17.73-.57,26.27,2.34,1.78.6,4.36,1.36,4.4,3.51,0,1.71-2.56,1.82-4,2.39a43.77,43.77,0,0,1-14.26,2.85c-3.39.16-6.81,1.39-10.28-.26-1.47-.7-3.94,2.14-4.07,4.29s1.24,2.42,2.93,2.34c.59,0,1.21,0,1.5.71-.62.3-1.23.64-1.87.9-3.45,1.37-4.94,3.58-3.5,6.78s.43,6.34.11,9.42C939.91,345.16,936.94,345.39,933.94,343.32Z" transform="translate(-276.21 -266.75)"/><path class="cls-5" d="M341.17,293.8c-.85-2.52-1.75-5-2.53-7.57a3.09,3.09,0,0,1,2.44-4.32c4.44-1.09,8.91-2,13.38-3a2.11,2.11,0,0,1,1.68.32c4.26,4.57,10.2,3.27,15.42,4.38a25,25,0,0,1,5.61,1.67c2.84,3,2.84,3-.25,7.17-.56,1-.57,2.65-2.46,2.06a3.3,3.3,0,0,1-1.12-3.08c1-4.38.41-5.25-4.23-5.22A65.75,65.75,0,0,1,358.18,285a3.58,3.58,0,0,1-1.69-.53c-4.18-3.35-8.31-1.17-12.41.13-1.69.54-2.23,1.86-1.63,3.58a8.57,8.57,0,0,1,.58,3.21C342.84,292.5,342.84,293.79,341.17,293.8Z" transform="translate(-276.21 -266.75)"/><path class="cls-6" d="M419.55,293.87c-1.47-3.24-4.07-6.16-2.45-10.21a2.44,2.44,0,0,0-1.29-2.78c-1.82-1.07-2-2.75-2.1-4.56.51.94,1,1.89,1.71,3.15,3-4,7.26-6,11.8-7.5,2.37-.8,3.38-.07,4.07,2.29.93,3.18.92,6.46,1.44,9.67.46,2.88-1.22,3.75-3.56,3.93a19,19,0,0,1-11.85-2.74c.19,3.15,1.84,5.47,2.34,8.09A.4.4,0,0,1,419.55,293.87Z" transform="translate(-276.21 -266.75)"/><path class="cls-7" d="M382.52,323.34a4.42,4.42,0,0,1,3.36-4c2.33-.37,2.79-1.56,3.07-3.36,1,.2,2,.34,2.95.45,4.26.48,7.16-.88,9-5.13a64.9,64.9,0,0,1,7.57-13.49c1-.5,1.52,1,2.49.5a33.79,33.79,0,0,1,5.21-3.32,6.32,6.32,0,0,1,1.12,3c-2.27-.32-3.77,1.07-5.29,2.41a10.51,10.51,0,0,0-3.68,3.58c-3.38,5-6.34,10.11-6,16.46,0,.81.13,2.1-.91,2.31S400,322,400,321c-.05-1.37-1.08-1.49-2.13-1.51-2.79-.06-5.58-.09-8.37-.19C386.26,319.18,384.43,321.32,382.52,323.34Z" transform="translate(-276.21 -266.75)"/><path class="cls-8" d="M374.05,291.36a4.73,4.73,0,0,0,.62,3,2.54,2.54,0,0,1-.21,1.22A2.41,2.41,0,0,0,375,299c1.3,1.2,2.78,2.28,3.55,4a1.12,1.12,0,0,1-.79,1.35,19.55,19.55,0,0,1-7.52-6.18c.87-.16,1.63-.5,1.17-1.56a2.66,2.66,0,0,0-3-1.52c-.67.06-1.21,0-1.38,1-.56,3.61-1.07,4-4.27,3.05-8.21-2.5-15.41-.44-22.08,4.48-2.58,1.91-3.81,5-6.34,7,3.61-8.25,14.28-14.26,23.4-13.13a55.28,55.28,0,0,1,5.86,1c1.15.27,2,.12,2.41-1,.53-1.55-.92-1.63-1.71-1.82a37.53,37.53,0,0,0-11.22-1.15c1.1-1.2,2.34-1.33,5.11-.66-2.4-.9-4.92.21-7.34-.34-.73-1.12.26-1.34.92-1.56a11.81,11.81,0,0,1,5.84-.55,68.91,68.91,0,0,1,7.28,1.45C368.24,293.75,371.3,293.61,374.05,291.36Z" transform="translate(-276.21 -266.75)"/><path class="cls-9" d="M341.83,298.7a29.47,29.47,0,0,0-10.94,14.43,19,19,0,0,0-1.21,7.6c.07,1.08.1,2.47-1.47,2.41-1.84-.08-1-1.61-1-2.52.88-8.86,4.48-16.32,11.62-21.87a10.4,10.4,0,0,1,1.55-.82C341,298,341.55,298.09,341.83,298.7Z" transform="translate(-276.21 -266.75)"/><path class="cls-10" d="M376.43,292c.06-.19.05-.49.17-.56,3.24-1.76,2.21-3.9.57-6.11,1.88,2.28,3.62,1.74,5.74.1,2.66-2.07,5.9-3.2,9-4.43.52,1,1.27.44,2,.3,3.44-.71,6.83-1.81,10.43-1.48a6,6,0,0,1,4.29,1.46,1.81,1.81,0,0,1,.45.81.87.87,0,0,1-.55.68c-6.11-1-12,0-17.78,2-3.83,1.29-7,3.78-10.33,5.88-2,1.28-1.79,3.45-2.54,5.24C375.22,295.41,376.28,293.54,376.43,292Z" transform="translate(-276.21 -266.75)"/><path class="cls-11" d="M404.68,280.57c-3.94-.29-7.66.91-11.45,1.71-.94.2-2.38.66-1.28-1.28,5.5-2,11-3.94,17-2.15.89.26,1.34-.24,1.07-1.15-.37-1.23-.8-2.44-1.21-3.65,2,1.73,2.53,3.73,1.13,6.12a7.07,7.07,0,0,0-.46,1.64c-.2.28-.4.28-.61,0h0C407.6,280.93,406.56,279.35,404.68,280.57Z" transform="translate(-276.21 -266.75)"/><path class="cls-12" d="M440.11,295c4.44,1.79,8.52,4.08,11.33,8.15.43.62,1.28,1.23.34,2s-1.44-.28-1.89-.79a36.85,36.85,0,0,0-12.29-8.59C437.92,293.78,439.19,295,440.11,295Z" transform="translate(-276.21 -266.75)"/><path class="cls-5" d="M350.56,293.16H359c-2.27,1.31-4.38-.24-5.9,1.35l0,0c-1.86.29-3.77.31-5.51,1.16l-1.13.58c-1,.34-2,.77-3,1.12s-1.67,0-1.78-1.13l0-.62c.29-.7-.17-2.28,1.17-1.82,2.51.86,4.55-.72,6.84-.84A1.28,1.28,0,0,1,350.56,293.16Z" transform="translate(-276.21 -266.75)"/><path class="cls-13" d="M440.11,295c-.87.16-1.91-.28-2.51.76-5.37-1-10.73-1.38-16.11-.08.82-1.31,2.18-1.3,3.46-1.3,3.47,0,7-.49,10.42.48,1.52.43,1.13-.28.49-1A8.58,8.58,0,0,1,440.11,295Z" transform="translate(-276.21 -266.75)"/><path class="cls-8" d="M350.07,293.21c-2.34.57-4.38,2.64-7.12,1.14-.93-.51-.49,1.11-1.21,1.25a1.72,1.72,0,0,1-.57-1.8c1-.52,1.14-1.48,1.14-2.48a5.19,5.19,0,0,0,5.85,1.31A1.72,1.72,0,0,1,350.07,293.21Z" transform="translate(-276.21 -266.75)"/><path class="cls-8" d="M341.78,296.22c1.58,1.92,3.17-.56,4.75,0l-4.7,2.47c-.55-.12-1.12-.19-1.41-.77Z" transform="translate(-276.21 -266.75)"/><path class="cls-14" d="M525.87,338.21c.37-3.91-2-3-4.23-2.42,1.23-.57,2-2.79,3.78-1.27C526.5,335.46,527.32,336.79,525.87,338.21Z" transform="translate(-276.21 -266.75)"/><path class="cls-13" d="M432.14,293.25a35.46,35.46,0,0,1-7.21-.12C427.34,292.7,429.75,292.39,432.14,293.25Z" transform="translate(-276.21 -266.75)"/><path class="cls-13" d="M419.55,293.87l.11-.66c1.61.54,3.2-.29,4.8,0C422.89,293.9,421.34,294.81,419.55,293.87Z" transform="translate(-276.21 -266.75)"/><path class="cls-15" d="M408.28,304a4.51,4.51,0,0,1,3.68-3.58Z" transform="translate(-276.21 -266.75)"/><path class="cls-8" d="M347.66,295.65c1.62-1.41,3.56-1.31,5.51-1.17A18.57,18.57,0,0,1,347.66,295.65Z" transform="translate(-276.21 -266.75)"/><path class="cls-16" d="M909.9,334.68a3.94,3.94,0,0,1,3.68-2.39A6.67,6.67,0,0,1,909.9,334.68Z" transform="translate(-276.21 -266.75)"/><path class="cls-17" d="M408.86,281.82h.61c3.78,2.06,4,6.11,5.37,9.53-1.82,1.59-1.69,4.54-4,5.78-1.75-.42-3.54-1.09-5.09.52-9.55,4.58-19.12,5.29-28.72.14a6.05,6.05,0,0,1-2.93-2.87l.6-.57c1.74.08.77-1.87,1.77-2.34.25,1.4-.77,3.52,2,3.5,3.7-.17,7.17,1.24,10.85,1.4a34.63,34.63,0,0,0,16.81-3.22c4.77-2.28,5.48-5.15,3-9.78a1.83,1.83,0,0,1-.27-1.42Z" transform="translate(-276.21 -266.75)"/><path class="cls-4" d="M423.87,338.2c-2.25-1.38-4.91-2-7-3.74-1.4-1.17-2.17-2.26,0-3.51a34.72,34.72,0,0,0,3.92-3c4-3.09,4.5-3,6.31,2a17.55,17.55,0,0,1,1.37,3.57l0,0c.9,1.62,2.19,3.64.79,5.05S425.67,339,423.87,338.2Z" transform="translate(-276.21 -266.75)"/><path class="cls-4" d="M432.19,327c.23.52.71.5,1.17.53a21.12,21.12,0,0,0,6.53,1.65c1.44.11,3.59-.05,3.69,2.44a19.09,19.09,0,0,1-8.91,6.68c-2,.79-2.89,0-3.22-2a35.42,35.42,0,0,0-1.24-4.84c-.11-1-.4-1.93-.52-2.9C429.4,326.2,430.32,325.8,432.19,327Z" transform="translate(-276.21 -266.75)"/><path class="cls-18" d="M441.92,318.44c3.55-1.89,4.25-1.5,4.37,2.6,0,1.68-.19,3.37-.3,5-.78,3.48-1.5,3.89-4.87,2.78a6,6,0,0,1-2.83-1.49h0c-1.84-.62-4.57-.73-4.89-2.72s2.48-2.43,3.94-3.44A38.57,38.57,0,0,1,441.92,318.44Z" transform="translate(-276.21 -266.75)"/><path class="cls-19" d="M416.47,329.1c-1.48,1.26-2.29,1.35-3.18-.85-1.55-3.81-2.06-7.45-.29-11.26,3.84-.28,6.47,2.06,9.15,4.26a1.66,1.66,0,0,1,0,2.64C420.34,325.71,418.86,327.91,416.47,329.1Z" transform="translate(-276.21 -266.75)"/><path class="cls-18" d="M443.32,313c.17.88-.36,1.25-1.07,1.54-2.76,1.14-5.51,2.32-8.27,3.46-.52.21-1.13.64-1.65.07s-.1-1.11.08-1.67c1-2.82,1.95-5.64,2.86-8.49.2-.64.39-1.05,1.14-1.08C438,306.72,443.18,311.31,443.32,313Z" transform="translate(-276.21 -266.75)"/><path class="cls-20" d="M413.7,314.22a21.82,21.82,0,0,1,5.11-5.74c1.54-1.17,1.95-.61,2.45.78,1,2.87,2.08,5.72,3.13,8.58.77,1.05,0,1.41-.8,1.66-1.89.57-8.94-2.2-10-3.91A1.06,1.06,0,0,1,413.7,314.22Z" transform="translate(-276.21 -266.75)"/><path class="cls-21" d="M428.2,315.91a43.41,43.41,0,0,1-3.4-9.07c-.32-1,.36-1.68,1.37-1.93a14.48,14.48,0,0,1,5.33-.15c1.41.18,1.74,1.2,1.19,2.43A49.54,49.54,0,0,1,428.2,315.91Z" transform="translate(-276.21 -266.75)"/><path class="cls-9" d="M413.7,314.22a1.81,1.81,0,0,0,1.14,1.87c2.56,1,5.1,2,7.68,2.94.93.33,2.07.49,1.87-1.19l.6.62c-1.94,1.43-1.38,4.05-2.54,5.65a15.35,15.35,0,0,1-5.4,5c-.15.08-.38,0-.58,0,1.64-1.7,3.27-3.41,4.92-5.1,1-1,1.51-2.15,0-2.88-2.8-1.37-5.2-3.57-8.39-4.13A2.3,2.3,0,0,1,413.7,314.22Z" transform="translate(-276.21 -266.75)"/><path class="cls-22" d="M410.77,296.85c.68-1.31,1.45-2.58,2-3.93.42-1,.72-1.91,2.06-1.58l1.29,3.67c-.93,2.22-3.63,2.21-4.95,3.95C409.47,298.56,410.13,297.71,410.77,296.85Z" transform="translate(-276.21 -266.75)"/><path class="cls-23" d="M438.29,327.38a4.25,4.25,0,0,1,2.78.7c2.55,1.43,4.1.71,4.92-2,.69,2.49-1.61,3.66-2.41,5.48-.69-1.64-2.31-1.38-3.6-1.66-2.32-.53-4.68-.89-6.62-2.43,1.15-.39,2,.32,3,.72S438.08,328.68,438.29,327.38Z" transform="translate(-276.21 -266.75)"/><path class="cls-23" d="M441.92,318.44c-2.18,2.08-4.94,3.3-7.38,5-1.59,1.11-1.38,1.71.28,2.35,1.19.46,2.32,1.07,3.47,1.61a3.31,3.31,0,0,1-1.16.08c-1.77-.54-4.13-.85-4.55-2.78-.39-1.77,2-2.16,3.21-2.94C437.75,320.53,439.45,318.74,441.92,318.44Z" transform="translate(-276.21 -266.75)"/><path class="cls-9" d="M428.54,333.53a17.24,17.24,0,0,1-2.29-5c-.84-2.25-1.83-3.22-3.89-1.17-.37.37-.79.93-1.5.62a6.11,6.11,0,0,1,2.25-2.29c1-.73,2.09-.76,2.76.46C427.13,328.47,428.49,330.77,428.54,333.53Z" transform="translate(-276.21 -266.75)"/><path class="cls-24" d="M423.87,338.2c5.85,1,5.85,1,4.65-4.69,1.56.93,1.54,2.63,1.92,4.1a1.3,1.3,0,0,1-1.34,1.81C427.27,339.43,425.31,339.89,423.87,338.2Z" transform="translate(-276.21 -266.75)"/><path class="cls-24" d="M430.63,331.54c.37,1.49.83,2.95,1.1,4.46.31,1.72,1.15,2.55,2.94,2.25-2.08,1.2-3.31.78-3.67-1.75-.24-1.66-.71-3.28-1.08-4.91A.43.43,0,0,1,430.63,331.54Z" transform="translate(-276.21 -266.75)"/><path class="cls-23" d="M430.63,331.54l-.71,0c-.25-1.23-.45-2.47-.79-3.68-.25-.91-.52-1.84.59-2.23a1.69,1.69,0,0,1,2.47,1.27c-1.58-.5-2.8-.65-2,1.72A18.09,18.09,0,0,1,430.63,331.54Z" transform="translate(-276.21 -266.75)"/><path class="cls-1" d="M374.07,294.91a27.33,27.33,0,0,0,23.66,4.76,33,33,0,0,0,8.14-2.81c3.23-1.29,3.23-1.29,3,1.14-3,5.47-5.92,10.93-8.85,16.41a5,5,0,0,1-2.83,2.43c-2.43.93-4.91.32-7.36.5-.77.06-.73-.78-.86-1.34l1.91-1.92a1.53,1.53,0,0,0-.37-2.24c-.94-.8-1.55,0-2.23.49l-.44.56c-2.18,2.6-2.68,2.46-4.51-1.25-1.57-3-3.33-5.84-5.06-8.72-1.63-1.38-2.86-3.16-4.67-4.4S373.53,296.07,374.07,294.91Z" transform="translate(-276.21 -266.75)"/><path class="cls-4" d="M368.09,324.36l.29.05c4.9.3,5.1.87,2.81,5.32-1.47,2.84-3.87,4.65-6.16,6.63-1.61.81-2.75,0-3.49-1.27-1.6-2.77-3.46-5.36-5.18-8-1.27-2-.75-2.94,1.58-2.9C361.33,324.2,364.72,323.81,368.09,324.36Z" transform="translate(-276.21 -266.75)"/><path class="cls-4" d="M350.1,330.42l1.74-3.64c.55-1.42,1.55-2.33,2.86-1.12a28.26,28.26,0,0,1,7.61,11.41c0,.13-.19.31-.37.42-4.13,2-8.28,1.28-12.44.1-2-.62-2.09-2-1.39-3.65A22.69,22.69,0,0,1,350.1,330.42Z" transform="translate(-276.21 -266.75)"/><path class="cls-19" d="M339.27,319c1.15-3.93,2.73-7.58,6-10.3,1.31-1.08,2.06-1.25,2.81.53,1.12,2.62,2.38,5.19,3.66,7.75a1.76,1.76,0,0,1-.51,2.56c-3.39,2.45-7.29,1.37-11,1.46A1.25,1.25,0,0,1,339.27,319Z" transform="translate(-276.21 -266.75)"/><path class="cls-19" d="M356,304.64a20.8,20.8,0,0,1,2.09,0c2.51.26,2.95,1.15,1.66,3.36-1.66,2.81-3.32,5.62-5,8.39-.94,1.5-1.92,2.11-2.73-.19s-1.63-4.67-2.67-6.91-.2-3.36,2-4.1A14,14,0,0,1,356,304.64Z" transform="translate(-276.21 -266.75)"/><path class="cls-21" d="M370.27,298.11a42,42,0,0,1,7.14,6c3.48,2.06,4.6,5.57,5.61,9.14.63.91.4,2,.54,3-.1.17-.06.29.13.37.51,2-1,2.92-2.29,3.13-1.86.31-1.45-1.68-1.84-2.79-1.27-6.57-5-11.52-10.25-15.44-.63-.47-2.05-.44-1.7-1.67A2.24,2.24,0,0,1,370.27,298.11Z" transform="translate(-276.21 -266.75)"/><path class="cls-19" d="M344.11,333.92a18.51,18.51,0,0,1-4.78-10,1.84,1.84,0,0,1,2.09-1.27c2.07.11,4.14.26,6.21.33s2.47,1.37,2,3.12c-.61,2.27-1.57,4.42-1.84,6.82C347.56,334.94,346.32,335.18,344.11,333.92Z" transform="translate(-276.21 -266.75)"/><path class="cls-19" d="M370.46,312.42c.39.8.8,1.58,1.15,2.39,2,4.66,1.58,5.31-3.45,5.32l-1.79,0c-1.66-.45-3.35-.07-5-.22-.83-.08-2,.46-2.42-.57s.45-1.82,1.16-2.5c.35-.35.78-.62,1.12-1a6.82,6.82,0,0,1,3.9-2.2h0C366.79,312.84,368.29,311.18,370.46,312.42Z" transform="translate(-276.21 -266.75)"/><path class="cls-25" d="M344.11,333.92c1.49.87,2.56,1.09,3-1.15a57.12,57.12,0,0,1,2.09-6.79c.59-1.65.06-2.62-1.61-2.57-2.77.09-5.65-1.41-8.3.5.75-1.64-1.07-3.25-.06-4.9.17,1,.56,1.61,1.74,1.59,3.44-.05,6.93.37,10.23-1.05-.76,1.61-2.22,1.84-3.74,1.86-2.08,0-4.16,0-6.67,0a13.05,13.05,0,0,0,6.43,1.14c2.71-.13,3.31,1.31,2.73,3.57-.46,1.81-1.09,3.57-1.73,5.63l1.84-1.34a9.39,9.39,0,0,1-1.45,3.76c-.73,1.43-.71,2.59.85,3.41A11.37,11.37,0,0,1,344.11,333.92Z" transform="translate(-276.21 -266.75)"/><path class="cls-26" d="M361.94,337.49c-1.39-4.57-4.77-7.84-7.57-11.47-1.11-1.44-1.74.27-2.53.76-.22-3.59,3.19-2.5,4.47-2.65a35.6,35.6,0,0,1,11.78.23c-3.39,0-6.78.12-10.16.06-1.92,0-2,.56-1.06,2,1.88,2.8,3.73,5.64,5.51,8.51.65,1.05,1.38,1.67,2.65,1.41C364.24,337.41,363,337.15,361.94,337.49Z" transform="translate(-276.21 -266.75)"/><path class="cls-27" d="M365.47,311.1l-1.58,1.41c-.9,1.14-1.41,2.8-3.38,2.51-.79-.59-.66-1.29-.25-2,.76-1.35,1.64-2.64,2.28-4,1.1-2.42,2.49-2.35,4.2-.69C367.86,309.91,366.34,310.36,365.47,311.1Z" transform="translate(-276.21 -266.75)"/><path class="cls-28" d="M362,316c-.38,1.55-3.37,1.68-2.55,3.28.58,1.12,2.9.31,4.43.46.85.08,1.78-.33,2.53.39-1.77.07-3.53.2-5.3.17-1.31,0-3,.53-3.66-1.12s.2-3.24,1.66-4.35c.32.93,1,.5,1.57.39A1.75,1.75,0,0,1,362,316Z" transform="translate(-276.21 -266.75)"/><path class="cls-7" d="M383.56,316.24l-1.08-2.66a2.63,2.63,0,0,1-.26-2.18c.24-1.27.87-.91,1.47-.2.28.39.71.74.82,1.17.71,2.88,1.94,2.05,3.31.52C387.83,315.82,384.62,314.67,383.56,316.24Z" transform="translate(-276.21 -266.75)"/><path class="cls-29" d="M362,316l-1.07-.53c-.19-.14-.25-.28-.18-.4s.15-.18.22-.18c1.18-.54,1.59-2.05,3-2.36,0,.78.52,1.07,1.22,1.14Z" transform="translate(-276.21 -266.75)"/><path class="cls-7" d="M379.56,317c.93.65,0,2.81,1.7,2.56a3.23,3.23,0,0,0,2.43-2.9c1.34,1.39-.11,2-.8,2.84a1.91,1.91,0,0,1-2.38.59C379.15,319.39,379.46,318.11,379.56,317Z" transform="translate(-276.21 -266.75)"/><path class="cls-29" d="M370.46,312.42c-2.09-.91-3.46,1.33-5.36,1.24C366.63,312.15,368.09,310.3,370.46,312.42Z" transform="translate(-276.21 -266.75)"/><path class="cls-30" d="M360.93,314.87a5.65,5.65,0,0,1,0,.58l-2.09,1.48c-.62-.82.48-1.39.27-2.12l1.19-1.81C360.39,313.65,360.14,314.44,360.93,314.87Z" transform="translate(-276.21 -266.75)"/><path class="cls-29" d="M365.47,311.1c.24-1,1.75-1.48,1.27-2.83.81.14,1.37.67,1.05,1.42A2,2,0,0,1,365.47,311.1Z" transform="translate(-276.21 -266.75)"/><path class="cls-7" d="M388.26,312.33c.53-1.19,1.46-1.76,2.52-.87.76.64,1.4,1.71.08,2.62C390.93,312.1,390,311.66,388.26,312.33Z" transform="translate(-276.21 -266.75)"/><path class="cls-19" d="M629.25,319.1c-.16,1.54,0,3-1.92,2.58-3.61-.85-7.28-.13-10.9-.56-.94-.11-2.2.32-2.63-.8-.32-.81.26-1.74.81-2.46q3.93-5.17,7.9-10.31c.54-.7,1.09-1.58,2.15-1.31s.9,1.17,1.06,2c.63,3.21,2.74,5.93,3.06,9.26A7.79,7.79,0,0,0,629.25,319.1Z" transform="translate(-276.21 -266.75)"/><path class="cls-1" d="M783,305.43c8.13.07,13.61,3.64,17.42,10,1.72,2.87.66,7.25-1.71,9.56-2.78,2.69-6.26,4.37-9.14,6.94-2.41,2.16-6.2,1.71-9.1,3.28-5.13,2.79-10.84,1.66-16.29,2.05-3.89.28-6.86-4.53-5.47-8.47,1.57-4.46,2.37-9.36,5.65-13s5.49-8.45,11.61-8.6C778.4,307.13,780.61,304.5,783,305.43Z" transform="translate(-276.21 -266.75)"/><path class="cls-1" d="M897.3,305.44c7.92-.06,13.44,3.46,17.37,9.76,1.67,2.69,1,7.24-1.22,9.42-2.94,3-6.69,4.82-9.83,7.53-2.18,1.89-5.66,1.43-8.3,2.87-5.31,2.91-11.21,1.92-16.87,2.22-3.71.2-6.64-4.25-5.57-7.84,1.44-4.84,2.63-9.92,5.93-13.83,3.07-3.63,5.53-8.22,11.51-8.37C892.7,307.14,894.82,304.57,897.3,305.44Z" transform="translate(-276.21 -266.75)"/><path class="cls-31" d="M350.07,293.21a9.22,9.22,0,0,0-2.92.33c-2.61,1.24-4,.21-4.84-2.22a7.25,7.25,0,0,0-.62-2.89c-1-2.6-.37-4,2.22-4.77q3.55-1,7.19-1.81a5.26,5.26,0,0,1,4.69,1.14c2.95,2.31,6.81,1.57,10.24,2.32a25,25,0,0,0,3.88.1c5,.24,5.8,1.45,4.14,5.95-1.47,3-3.63,3.33-6.88,2.76-5.45-1-10.92-3.52-16.61-1h-.25Z" transform="translate(-276.21 -266.75)"/><path class="cls-32" d="M430.24,283.78a2.22,2.22,0,0,1-2.47,2.18,17.37,17.37,0,0,1-9-2.8,2,2,0,0,1-.43-3.3c2-2.19,4.24-4.2,7.22-5.1,2.15-.66,3.48-.13,3.74,2.31C429.53,279.14,429.88,281.19,430.24,283.78Z" transform="translate(-276.21 -266.75)"/><path class="cls-15" d="M408.85,298c.31-3.79-2.21-.16-3-1.14,1.63-1.94,3.26-1.33,4.9,0,.1.71-.78,1.61.41,2.11C410.18,300,410.18,300,408.85,298Z" transform="translate(-276.21 -266.75)"/><path class="cls-33" d="M383.69,311.2c-2.34-.19-.66,1.66-1.21,2.38-.86-3.6-2.86-6.58-5.07-9.45a1.24,1.24,0,0,0,.84-1.21C381.05,305,382.33,308.14,383.69,311.2Z" transform="translate(-276.21 -266.75)"/><path class="cls-34" d="M408.83,282.48c4.29,5.35,2.95,10.34-3.91,12.8a38.58,38.58,0,0,1-23.71,1.18c-.95-.26-1.86-.63-2.8-1-1.63-1.27-1.6-2.52-.08-3.92,6.17-5.71,13.49-8.7,21.76-9.86A21.06,21.06,0,0,1,408.83,282.48Z" transform="translate(-276.21 -266.75)"/><path class="cls-17" d="M404.68,280.57c2.17-2.18,3.09-.19,4.17,1.25C407.41,281.59,406.32,280.17,404.68,280.57Z" transform="translate(-276.21 -266.75)"/><path class="cls-35" d="M387.83,290.85c-.94-1.16-.54-1.68.83-1.86,1.14-.14,2.27-.42,3.4-.63,2.59-1.17,5.27-.2,7.9-.33.87,0,1.68.27,1.78,1.21s-.7,1.4-1.51,1.54c-1.66.31-3.35.45-4.78,1.49-1,.09-1.88.54-2.82.7C390.63,293.3,388.72,293.17,387.83,290.85Z" transform="translate(-276.21 -266.75)"/><path class="cls-36" d="M395.62,292c.79-1.85,2.52-1.56,4-1.75.67-.08,1.63,0,1.56-.91s-.95-.5-1.61-.51c-2.52,0-5-.27-7.54-.42,2.75-2.21,6.13-.7,9.15-1.49.89-.24,1.05,1.21,1.08,2.12.53,2.25-1.32,2.44-2.61,2.62A22.94,22.94,0,0,1,395.62,292Z" transform="translate(-276.21 -266.75)"/><path class="cls-37" d="M395.62,292a9.18,9.18,0,0,1,3.45-.59c1.51-.11,2.95-.48,3.22-2.37,1.21,1.52,0,2.45-1.08,2.56-3.57.35-6.87,1.78-10.38,2.28-2.42.34-3.3-.67-3-3C390.13,293.32,393,292.07,395.62,292Z" transform="translate(-276.21 -266.75)"/></svg>